# xmcd
# 
# Track frame offsets:
#     150
#     23740
#     43255
#     62700
#     78452
#     100693
#     113431
#     134919
#     152308
#     169951
# 
# Disc length: 2556
# 
# Revision: 1
# Processed by: cddbd v1.5.2PL0 Copyright (c) Steve Scherf et al.
# Submitted via: fre:ac v1.0.31
# 
DISCID=7b09fa0a
DTITLE=謝宇威 - 一儕，花樹下
DYEAR=2003
DGENRE=Hakka
TTITLE0=從頭來過
TTITLE1=十八姑娘
TTITLE2=一儕
TTITLE3=桃花開
TTITLE4=奈何
TTITLE5=月光光
TTITLE6=花樹下
TTITLE7=日頭落山
TTITLE8=山歌
TTITLE9=勇往直前行
EXTD=
EXTT0=
EXTT1=
EXTT2=
EXTT3=
EXTT4=
EXTT5=
EXTT6=
EXTT7=
EXTT8=
EXTT9=
PLAYORDER=
